HIERARCHY
ROOT Hips
{
	OFFSET 0.000000 103.266502 0.000000
	CHANNELS 6 Xposition Yposition Zposition Xrotation Yrotation Zrotation 
	JOINT Spine
	{
		OFFSET -0.002400 12.777504 0.315300
		CHANNELS 3 Xrotation Yrotation Zrotation
		JOINT Spine1
		{
			OFFSET -0.002067 5.816869 0.032633
			CHANNELS 3 Xrotation Yrotation Zrotation
			JOINT Spine1_split
			{
				OFFSET -0.002067 5.816869 0.032633
				CHANNELS 3 Xrotation Yrotation Zrotation
				JOINT Spine2
				{
					OFFSET -0.002067 5.816869 0.032633
					CHANNELS 3 Xrotation Yrotation Zrotation
					JOINT Neck
					{
						OFFSET -0.003700 21.199493 -0.826900
						CHANNELS 3 Xrotation Yrotation Zrotation
						JOINT Head
						{
							OFFSET 0.000000 20.442200 4.834800
							CHANNELS 3 Xrotation Yrotation Zrotation
							JOINT HeadTop_End
							{
								OFFSET 0.000000 34.668396 4.968400
								CHANNELS 3 Xrotation Yrotation Zrotation
								End Site
								{
									OFFSET 0.000000 0.000000 0.000000
								}
							}
						}
					}
					JOINT LeftShoulder
					{
						OFFSET 3.288150 8.794197 -1.372250
						CHANNELS 3 Xrotation Yrotation Zrotation
						JOINT LeftShoulder_split
						{
							OFFSET 3.288150 8.794197 -1.372250
							CHANNELS 3 Xrotation Yrotation Zrotation
							JOINT LeftArm
							{
								OFFSET 11.953299 -2.279007 -0.146200
								CHANNELS 3 Xrotation Yrotation Zrotation
								JOINT LeftForeArm
								{
									OFFSET 18.448900 0.000000 0.000000
									CHANNELS 3 Xrotation Yrotation Zrotation
									JOINT LeftHand
									{
										OFFSET 29.527798 0.000000 0.000000
										CHANNELS 3 Xrotation Yrotation Zrotation
										JOINT LeftHandThumb1
										{
											OFFSET 10.739754 -2.369614 9.225399
											CHANNELS 3 Xrotation Yrotation Zrotation
											JOINT LeftHandThumb2
											{
												OFFSET 4.926170 -2.844131 2.844125
												CHANNELS 3 Xrotation Yrotation Zrotation
												JOINT LeftHandThumb3
												{
													OFFSET 4.614891 -2.664413 2.664409
													CHANNELS 3 Xrotation Yrotation Zrotation
													JOINT LeftHandThumb4
													{
														OFFSET 4.432465 -2.559082 2.559083
														CHANNELS 3 Xrotation Yrotation Zrotation
														End Site
														{
															OFFSET 0.000000 0.000000 0.000000
														}
													}
												}
											}
										}
										JOINT LeftHandIndex1
										{
											OFFSET 26.467674 0.187653 6.405298
											CHANNELS 3 Xrotation Yrotation Zrotation
											JOINT LeftHandIndex2
											{
												OFFSET 8.792900 0.000000 0.000000
												CHANNELS 3 Xrotation Yrotation Zrotation
												JOINT LeftHandIndex3
												{
													OFFSET 10.075203 0.000000 0.000000
													CHANNELS 3 Xrotation Yrotation Zrotation
													End Site
													{
														OFFSET 0.000000 0.000000 0.000000
													}
												}
											}
										}
										JOINT LeftHandMiddle1
										{
											OFFSET 25.764404 0.000000 0.000000
											CHANNELS 3 Xrotation Yrotation Zrotation
											JOINT LeftHandMiddle2
											{
												OFFSET 9.393974 0.000000 0.000000
												CHANNELS 3 Xrotation Yrotation Zrotation
												JOINT LeftHandMiddle3
												{
													OFFSET 10.771950 0.000000 0.000000
													CHANNELS 3 Xrotation Yrotation Zrotation
													End Site
													{
														OFFSET 0.000000 0.000000 0.000000
													}
												}
											}
										}
										JOINT LeftHandRing1
										{
											OFFSET 24.660927 0.144547 -6.225808
											CHANNELS 3 Xrotation Yrotation Zrotation
											JOINT LeftHandRing2
											{
												OFFSET 9.393799 0.000000 0.000000
												CHANNELS 3 Xrotation Yrotation Zrotation
												JOINT LeftHandRing3
												{
													OFFSET 9.928497 0.000000 0.000000
													CHANNELS 3 Xrotation Yrotation Zrotation
													End Site
													{
														OFFSET 0.000000 0.000000 0.000000
													}
												}
											}
										}
										JOINT LeftHandPinky1
										{
											OFFSET 23.655350 0.125290 -12.815412
											CHANNELS 3 Xrotation Yrotation Zrotation
											JOINT LeftHandPinky2
											{
												OFFSET 8.425102 0.000000 0.000000
												CHANNELS 3 Xrotation Yrotation Zrotation
												JOINT LeftHandPinky3
												{
													OFFSET 8.147003 0.000000 0.000000
													CHANNELS 3 Xrotation Yrotation Zrotation
													End Site
													{
														OFFSET 0.000000 0.000000 0.000000
													}
												}
											}
										}
									}
								}
							}
						}
					}
					JOINT RightShoulder
					{
						OFFSET -3.249400 8.794197 -1.372250
						CHANNELS 3 Xrotation Yrotation Zrotation
						JOINT RightShoulder_split
						{
							OFFSET -3.249400 8.794197 -1.372250
							CHANNELS 3 Xrotation Yrotation Zrotation
							JOINT RightArm
							{
								OFFSET -11.953299 -2.279007 -0.146200
								CHANNELS 3 Xrotation Yrotation Zrotation
								JOINT RightForeArm
								{
									OFFSET -18.448900 0.000000 0.000000
									CHANNELS 3 Xrotation Yrotation Zrotation
									JOINT RightHand
									{
										OFFSET -29.527802 0.000000 0.000000
										CHANNELS 3 Xrotation Yrotation Zrotation
										JOINT RightHandThumb1
										{
											OFFSET -10.739754 -2.369614 9.225399
											CHANNELS 3 Xrotation Yrotation Zrotation
											JOINT RightHandThumb2
											{
												OFFSET -4.926170 -2.844131 2.844125
												CHANNELS 3 Xrotation Yrotation Zrotation
												JOINT RightHandThumb3
												{
													OFFSET -4.614891 -2.664413 2.664409
													CHANNELS 3 Xrotation Yrotation Zrotation
													JOINT RightHandThumb4
													{
														OFFSET -4.432465 -2.559082 2.559083
														CHANNELS 3 Xrotation Yrotation Zrotation
														End Site
														{
															OFFSET 0.000000 0.000000 0.000000
														}
													}
												}
											}
										}
										JOINT RightHandIndex1
										{
											OFFSET -26.467674 0.187653 6.405298
											CHANNELS 3 Xrotation Yrotation Zrotation
											JOINT RightHandIndex2
											{
												OFFSET -8.792900 0.000000 0.000000
												CHANNELS 3 Xrotation Yrotation Zrotation
												JOINT RightHandIndex3
												{
													OFFSET -10.075203 0.000000 0.000000
													CHANNELS 3 Xrotation Yrotation Zrotation
													End Site
													{
														OFFSET 0.000000 0.000000 0.000000
													}
												}
											}
										}
										JOINT RightHandMiddle1
										{
											OFFSET -25.764404 0.000000 0.000000
											CHANNELS 3 Xrotation Yrotation Zrotation
											JOINT RightHandMiddle2
											{
												OFFSET -9.393974 0.000000 0.000000
												CHANNELS 3 Xrotation Yrotation Zrotation
												JOINT RightHandMiddle3
												{
													OFFSET -10.771950 0.000000 0.000000
													CHANNELS 3 Xrotation Yrotation Zrotation
													End Site
													{
														OFFSET 0.000000 0.000000 0.000000
													}
												}
											}
										}
										JOINT RightHandRing1
										{
											OFFSET -24.660927 0.144547 -6.225808
											CHANNELS 3 Xrotation Yrotation Zrotation
											JOINT RightHandRing2
											{
												OFFSET -9.393799 0.000000 0.000000
												CHANNELS 3 Xrotation Yrotation Zrotation
												JOINT RightHandRing3
												{
													OFFSET -9.928497 0.000000 0.000000
													CHANNELS 3 Xrotation Yrotation Zrotation
													End Site
													{
														OFFSET 0.000000 0.000000 0.000000
													}
												}
											}
										}
										JOINT RightHandPinky1
										{
											OFFSET -23.655350 0.125290 -12.815412
											CHANNELS 3 Xrotation Yrotation Zrotation
											JOINT RightHandPinky2
											{
												OFFSET -8.425102 0.000000 0.000000
												CHANNELS 3 Xrotation Yrotation Zrotation
												JOINT RightHandPinky3
												{
													OFFSET -8.147003 0.000000 0.000000
													CHANNELS 3 Xrotation Yrotation Zrotation
													End Site
													{
														OFFSET 0.000000 0.000000 0.000000
													}
												}
											}
										}
									}
								}
							}
						}
					}
				}
			}
		}
	}
	JOINT LeftUpLeg
	{
		OFFSET 11.394100 -6.187798 -0.413800
		CHANNELS 3 Xrotation Yrotation Zrotation
		JOINT LeftLeg
		{
			OFFSET 0.430247 -32.302673 3.732800
			CHANNELS 3 Xrotation Yrotation Zrotation
			JOINT LeftFoot
			{
				OFFSET -0.430247 -48.264931 -6.423300
				CHANNELS 3 Xrotation Yrotation Zrotation
				JOINT LeftToeBase
				{
					OFFSET 4.230900 -16.068199 23.438400
					CHANNELS 3 Xrotation Yrotation Zrotation
					JOINT LeftToe_End
					{
						OFFSET 4.510700 0.695400 19.974600
						CHANNELS 3 Xrotation Yrotation Zrotation
						End Site
						{
							OFFSET 0.000000 0.000000 0.000000
						}
					}
				}
			}
		}
	}
	JOINT RightUpLeg
	{
		OFFSET -11.333700 -6.187798 -0.413800
		CHANNELS 3 Xrotation Yrotation Zrotation
		JOINT RightLeg
		{
			OFFSET -0.430392 -32.302628 3.733000
			CHANNELS 3 Xrotation Yrotation Zrotation
			JOINT RightFoot
			{
				OFFSET 0.430392 -48.264973 -6.423500
				CHANNELS 3 Xrotation Yrotation Zrotation
				JOINT RightToeBase
				{
					OFFSET -4.230900 -16.068199 23.438400
					CHANNELS 3 Xrotation Yrotation Zrotation
					JOINT RightToe_End
					{
						OFFSET -4.510700 0.695400 19.974600
						CHANNELS 3 Xrotation Yrotation Zrotation
						End Site
						{
							OFFSET 0.000000 0.000000 0.000000
						}
					}
				}
			}
		}
	}
}
MOTION
Frames: 4
Frame Time: 0.016667
3.695492 9.130821 8.934715 87.459999 0.096153 1.176399 3.814621 0.571018 -1.240340 0.793247 0.138199 -0.141419 0.000000 0.000000 0.000000 0.792545 0.141294 -0.141442 -5.136614 -13.863062 6.464564 -18.401112 -57.031017 -18.459155 -0.000000 0.000001 0.000000 3.766325 -21.296509 -1.256999 0.000000 0.000000 0.000000 15.600393 -18.626722 -61.954447 0.000005 -18.654966 -0.000004 42.089036 7.016532 -15.751005 -1.540042 3.690195 6.142354 3.939050 7.948704 0.746811 -0.579468 1.575012 2.538715 -0.000000 -0.000001 -0.000000 0.298629 2.009589 -16.903098 0.539681 2.676802 -22.793548 -0.000002 -0.000002 0.000000 0.298067 2.007734 -16.887100 0.540423 2.678585 -22.809567 -0.000002 0.000003 -0.000003 0.298628 2.009588 -16.903098 0.539683 2.676802 -22.793545 -0.000002 0.000000 0.000000 1.465420 5.893248 -16.473127 0.545002 -1.382190 -23.265299 0.000000 0.000002 -0.000005 0.640297 15.700665 9.197085 0.000000 0.000000 0.000000 13.898617 -3.320491 53.523463 0.000003 31.875315 0.000013 15.264773 -23.834165 10.590703 -1.849235 -3.581800 -6.586132 4.637192 -8.634105 -0.225391 -1.273746 0.137317 -2.094867 0.000000 -0.000003 -0.000003 0.480703 -2.544872 21.389429 1.003298 -3.603113 31.111303 -0.000005 -0.000000 -0.000001 0.480695 -2.544875 21.389432 1.003307 -3.603102 31.111314 -0.000004 -0.000001 0.000002 0.480704 -2.544870 21.389424 1.003301 -3.603115 31.111303 -0.000003 0.000001 0.000001 0.480702 -2.544873 21.389426 1.003303 -3.603118 31.111307 -0.000002 0.000001 -0.000002 -9.821260 6.843862 9.409897 11.242032 18.113841 2.777863 53.118016 27.552766 -14.319172 7.179877 1.928020 15.530206 -0.000002 0.000002 0.000002 -10.818190 -7.809298 -12.221230 15.007660 -19.507362 -1.738202 52.604987 -26.597938 23.374260 9.546923 -1.033919 -10.833296 -0.000000 0.000001 -0.000002 
3.695106 9.132591 8.934700 87.450532 0.099844 1.176479 3.823101 0.568122 -1.239399 0.795021 0.137604 -0.141028 0.000000 0.000000 0.000000 0.794336 0.140705 -0.141052 -5.134265 -13.862904 6.460976 -18.393343 -57.036444 -18.452388 -0.000000 -0.000000 0.000000 3.774319 -21.342084 -1.254778 0.000000 0.000000 0.000000 15.591966 -18.591063 -61.965286 -0.000006 -18.641591 0.000010 42.085501 7.002032 -15.750927 -1.540042 3.690187 6.142354 3.939049 7.948685 0.746811 -0.579466 1.574988 2.538716 -0.000000 -0.000002 -0.000000 0.298634 2.009585 -16.903106 0.539668 2.676802 -22.793555 0.000000 -0.000000 0.000001 0.298066 2.007718 -16.887107 0.540418 2.678592 -22.809565 0.000001 -0.000000 -0.000002 0.298634 2.009584 -16.903106 0.539668 2.676802 -22.793552 -0.000002 0.000000 -0.000003 1.465422 5.893252 -16.473130 0.545008 -1.382173 -23.265296 0.000001 0.000000 -0.000005 0.641017 15.689952 9.189852 0.000000 0.000000 0.000000 13.871899 -3.307248 53.531550 -0.000006 31.852095 -0.000000 15.245643 -23.874499 10.516418 -1.849265 -3.581796 -6.586139 4.637207 -8.634133 -0.225398 -1.273745 0.137314 -2.094861 -0.000001 -0.000000 -0.000000 0.480693 -2.544883 21.389412 1.003305 -3.603103 31.111317 -0.000001 -0.000003 0.000004 0.480700 -2.544881 21.389414 1.003304 -3.603099 31.111314 0.000003 0.000001 0.000000 0.480691 -2.544882 21.389410 1.003306 -3.603104 31.111320 0.000001 -0.000000 -0.000000 0.480692 -2.544884 21.389410 1.003306 -3.603102 31.111320 -0.000003 -0.000001 0.000002 -9.818254 6.848680 9.414434 11.254311 18.123120 2.777482 53.108426 27.560612 -14.339070 7.181661 1.924118 15.512727 -0.000002 -0.000001 -0.000002 -10.809921 -7.812082 -12.221658 15.003147 -19.500605 -1.734091 52.614429 -26.599711 23.355695 9.537440 -1.035492 -10.843787 -0.000002 -0.000001 -0.000001 
3.694314 9.135368 8.935074 87.458230 0.104459 1.181756 3.813626 0.564273 -1.241316 0.792719 0.136766 -0.140974 0.000000 0.000000 0.000000 0.792051 0.139859 -0.141001 -5.125206 -13.862461 6.457385 -18.396659 -57.041666 -18.453984 0.000000 -0.000001 -0.000000 3.780977 -21.376643 -1.256570 0.000000 0.000000 0.000000 15.556879 -18.576981 -61.979684 0.000000 -18.573166 0.000003 42.065202 6.975400 -15.756070 -1.540041 3.690194 6.142355 3.939049 7.948704 0.746810 -0.579467 1.575006 2.538716 -0.000000 0.000000 0.000000 0.298629 2.009594 -16.903098 0.539667 2.676788 -22.793557 -0.000001 0.000000 0.000001 0.298073 2.007751 -16.887103 0.540421 2.678553 -22.809586 -0.000001 0.000001 -0.000001 0.298629 2.009593 -16.903098 0.539667 2.676788 -22.793559 0.000000 0.000001 -0.000004 1.465420 5.893257 -16.473120 0.545005 -1.382190 -23.265305 -0.000001 -0.000001 -0.000001 0.640458 15.698713 9.195480 0.000000 0.000000 0.000000 13.865614 -3.329057 53.534920 0.000001 31.844008 -0.000014 15.261241 -23.895909 10.436544 -1.849257 -3.581787 -6.586138 4.637189 -8.634144 -0.225409 -1.273757 0.137317 -2.094857 0.000001 -0.000002 -0.000003 0.480685 -2.544893 21.389400 1.003316 -3.603109 31.111310 0.000001 0.000001 -0.000001 0.480691 -2.544884 21.389400 1.003310 -3.603108 31.111314 -0.000001 -0.000002 0.000003 0.480681 -2.544893 21.389400 1.003319 -3.603109 31.111314 -0.000000 -0.000002 0.000004 0.480684 -2.544894 21.389398 1.003318 -3.603106 31.111307 0.000000 0.000001 0.000000 -9.824336 6.843657 9.405386 11.253734 18.136341 2.788504 53.108020 27.572214 -14.377859 7.188167 1.919702 15.492602 -0.000000 -0.000002 0.000000 -10.823745 -7.813118 -12.230944 15.015269 -19.505477 -1.732169 52.612281 -26.596388 23.374174 9.553872 -1.032650 -10.826418 -0.000003 0.000003 -0.000000 
3.693450 9.138649 8.934822 87.469575 0.106784 1.187154 3.802010 0.561655 -1.242150 0.789975 0.136171 -0.140839 0.000000 0.000000 0.000000 0.789285 0.139252 -0.140869 -5.121391 -13.861866 6.453984 -18.401129 -57.042236 -18.461742 0.000000 0.000001 0.000000 3.780660 -21.372239 -1.259641 0.000000 0.000000 0.000000 15.494901 -18.603301 -61.991774 -0.000002 -18.436590 0.000003 42.055578 6.923402 -15.795207 -1.540043 3.690192 6.142354 3.939052 7.948680 0.746811 -0.579467 1.574992 2.538716 -0.000000 -0.000000 -0.000000 0.298628 2.009574 -16.903096 0.539671 2.676798 -22.793538 -0.000004 -0.000003 -0.000003 0.298068 2.007739 -16.887103 0.540419 2.678559 -22.809569 0.000000 0.000001 -0.000001 0.298628 2.009573 -16.903096 0.539672 2.676798 -22.793542 -0.000000 -0.000001 -0.000002 1.465419 5.893246 -16.473125 0.545009 -1.382173 -23.265289 0.000001 -0.000001 -0.000002 0.640979 15.712333 9.191116 0.000000 0.000000 0.000000 13.846820 -3.359453 53.548827 -0.000003 31.824467 -0.000002 15.286114 -23.918037 10.367432 -1.849243 -3.581795 -6.586134 4.637197 -8.634122 -0.225402 -1.273765 0.137313 -2.094881 0.000000 -0.000002 -0.000002 0.480697 -2.544856 21.389427 1.003289 -3.603116 31.111314 -0.000001 0.000003 -0.000001 0.480689 -2.544868 21.389420 1.003309 -3.603105 31.111314 -0.000000 -0.000003 0.000001 0.480695 -2.544856 21.389427 1.003297 -3.603114 31.111310 0.000003 0.000002 0.000000 0.480698 -2.544857 21.389426 1.003297 -3.603114 31.111307 0.000001 -0.000001 0.000002 -9.832025 6.834967 9.392087 11.244762 18.140723 2.800734 53.114761 27.580266 -14.396669 7.191930 1.918380 15.486349 0.000000 -0.000000 0.000002 -10.841699 -7.812424 -12.240115 15.036574 -19.523544 -1.735743 52.597900 -26.589576 23.422020 9.591611 -1.025859 -10.784128 -0.000003 0.000001 0.000002 
